# xmcd
#
# Track frame offsets: 
#        150
#        12989
#        31458
#        41463
#        55543
#        65190
#        85687
#        103904
#        132465
#        148361
#
# Disc length: 2150 seconds
#
# Revision: 0
# Processed by: cddbd v1.5.2PL0 Copyright (c) Steve Scherf et al.
# Submitted via: ExactAudioCopy v0.99pb5
#
DISCID=8f08640a
DTITLE=Marc-Andre Leger - Marc-Andre Leger
DYEAR=1997
DGENRE=Blues
TTITLE0=I Want You Too
TTITLE1=In My Life
TTITLE2=Make U Mine
TTITLE3=The Only One
TTITLE4=Interlude
TTITLE5=It Just Takes Time
TTITLE6=Bluesboy
TTITLE7=I'm Leaving In The Morning
TTITLE8=Gonna Get Me A Harley
TTITLE9=Ramblin' Highwayside
EXTD=
EXTT0=
EXTT1=
EXTT2=
EXTT3=
EXTT4=
EXTT5=
EXTT6=
EXTT7=
EXTT8=
EXTT9=
PLAYORDER=
